<svg width="30" height="30" viewBox="0 0 30 30" fill="none" xmlns="http://www.w3.org/2000/svg">
<circle cx="15" cy="15" r="15" fill="#00489F"/>
<path d="M21.2854 11.0714H8.71401C7.84613 11.0714 7.14258 11.775 7.14258 12.6428V20.5C7.14258 21.3679 7.84613 22.0714 8.71401 22.0714H21.2854C22.1533 22.0714 22.8569 21.3679 22.8569 20.5V12.6428C22.8569 11.775 22.1533 11.0714 21.2854 11.0714Z" stroke="white" stroke-width="2" stroke-linecap="round" stroke-linejoin="round"/>
<path d="M18.1431 22.0714V9.50002C18.1431 9.08325 17.9776 8.68355 17.6829 8.38885C17.3882 8.09415 16.9885 7.92859 16.5717 7.92859H13.4289C13.0121 7.92859 12.6124 8.09415 12.3177 8.38885C12.023 8.68355 11.8574 9.08325 11.8574 9.50002V22.0714" stroke="white" stroke-width="2" stroke-linecap="round" stroke-linejoin="round"/>
</svg>
