<svg width="31" height="30" viewBox="0 0 31 30" fill="none" xmlns="http://www.w3.org/2000/svg">
<circle cx="15.6054" cy="14.9239" r="14.8719" transform="rotate(90.2008 15.6054 14.9239)" fill="#C8C8C8"/>
<path d="M14.6754 21.4306C14.3091 21.4316 13.9462 21.36 13.6078 21.2197C13.2694 21.0795 12.9621 20.8734 12.7039 20.6136L8.98597 16.8956C8.45895 16.3695 8.16895 15.6687 8.16895 14.9241C8.16895 14.1796 8.45895 13.4788 8.98597 12.9518C10.0391 11.8986 11.8758 11.8986 12.9289 12.9518L14.0331 14.056L16.8857 8.92241C17.1532 8.43991 17.5579 8.04764 18.0484 7.79526C18.539 7.54287 19.0934 7.44173 19.6415 7.50463C20.1896 7.56753 20.7067 7.79164 21.1273 8.1486C21.548 8.50556 21.8532 8.9793 22.0044 9.50984C22.1063 9.86195 22.1372 10.2308 22.0952 10.5949C22.0532 10.9591 21.9393 11.3112 21.76 11.6309L17.1125 19.9964C16.8699 20.43 16.5164 20.7914 16.0881 21.0434C15.6599 21.2954 15.1723 21.4291 14.6754 21.4306ZM10.9574 13.9946C10.7083 13.9946 10.4759 14.0913 10.3003 14.267C10.1246 14.4427 10.0279 14.675 10.0279 14.9241C10.0279 15.1732 10.1246 15.4056 10.3003 15.5813L14.0182 19.2993C14.1201 19.4006 14.2441 19.477 14.3804 19.5225C14.5167 19.5679 14.6617 19.5812 14.804 19.5613C14.9463 19.5414 15.0821 19.4889 15.2007 19.4078C15.3193 19.3267 15.4176 19.2192 15.4878 19.0938L20.1352 10.7284C20.1949 10.6219 20.2329 10.5047 20.2469 10.3834C20.2609 10.2621 20.2508 10.1393 20.217 10.022C20.1837 9.9042 20.1273 9.79421 20.051 9.69846C19.9747 9.60271 19.8801 9.52311 19.7727 9.4643C19.5568 9.34903 19.3045 9.32222 19.0691 9.38951C18.8338 9.4568 18.6338 9.61294 18.5114 9.82494L14.4616 17.1131L11.6155 14.267C11.5292 14.1804 11.4267 14.1117 11.3137 14.065C11.2008 14.0183 11.0797 13.9943 10.9574 13.9946V13.9946Z" fill="white"/>
</svg>